<svg width="360" height="33" viewBox="0 0 360 33" fill="none" xmlns="http://www.w3.org/2000/svg">
  <path d="M22.2562 32.3693C31.7339 32.3693 35.6898 28.5783 37.0084 27.0536C37.5441 28.331 38.121 30.721 38.2446 31.8336H44.0136V14.6502H22.4211V20.4604H34.4536V20.5429C34.4536 21.4082 31.6927 24.9108 22.5859 24.9108C14.1384 24.9108 11.0067 20.6665 11.0067 16.6694V16.2161C11.0067 11.9718 13.3143 7.93348 22.6683 7.93348C32.2284 7.93348 33.341 11.6009 33.5882 12.3014H43.8076V12.2602C43.6427 8.09831 40.6346 0.639816 23.4925 0.639816H21.7205C4.08389 0.639816 0.952148 9.82901 0.952148 15.804V16.9578C0.952148 23.0977 4.78441 32.3693 21.3909 32.3693H22.2562Z" fill="#F8F8F8"/>
  <path d="M48.3854 1.17551V31.8336H81.1039V24.7048H57.8631V19.6775H80.1561V12.6723H57.8631V8.13951H80.6918V1.17551H48.3854Z" fill="#F8F8F8"/>
  <path d="M105.361 0.639816C85.9528 0.639816 83.7688 10.3235 83.7688 15.804V17.0403C83.7688 22.4384 85.9528 32.3693 105.361 32.3693H107.133C126.459 32.3693 128.685 22.4384 128.685 17.0403V15.804C128.685 10.3235 126.418 0.639816 107.133 0.639816H105.361ZM118.63 16.6694C118.63 20.2132 116.529 24.9108 106.227 24.9108C95.8425 24.9108 93.8234 20.0896 93.8234 16.587V16.0925C93.8234 12.5899 95.6777 8.0571 106.227 8.0571C116.611 8.0571 118.63 12.5899 118.63 16.0925V16.6694Z" fill="#F8F8F8"/>
  <path d="M151.33 32.3693C166.742 32.3693 169.297 27.1772 169.297 22.1087V21.5318C169.297 15.4332 164.64 12.6311 153.102 12.4251L147.951 12.3426C141.688 12.219 140.864 11.024 140.864 9.70539C140.864 8.38676 141.399 7.06813 148.817 7.06813H149.476C157.511 7.06813 158.129 9.58177 158.335 10.7356H168.308V10.3235C168.308 5.70829 165.011 0.639816 150.506 0.639816H147.663C133.694 0.639816 130.974 5.41984 130.974 9.99384V10.3647C130.974 15.1447 134.476 19.0182 145.932 19.3479L151.207 19.4715C158.294 19.6775 159.242 20.7901 159.242 22.562C159.242 24.2103 158.335 25.8174 150.259 25.8174H149.682C141.77 25.8174 140.699 22.8093 140.575 20.9549H130.562V21.4082C130.562 25.4465 132.416 32.3693 148.487 32.3693H151.33Z" fill="#F8F8F8"/>
  <path d="M193.545 32.3693C211.058 32.3693 214.107 23.7982 214.107 19.9248V19.4715H203.929C203.682 20.172 202.693 24.9108 192.762 24.9108C183.82 24.9108 181.389 20.1308 181.389 16.5046V16.0101C181.389 12.1778 183.49 8.0571 192.679 8.0571C202.404 8.0571 203.64 12.3426 203.888 13.1668H214.066V12.7135C214.066 9.12849 211.305 0.639816 193.545 0.639816H191.855C173.724 0.639816 171.334 10.2411 171.334 15.804V16.999C171.334 22.4384 174.095 32.3693 191.855 32.3693H193.545Z" fill="#F8F8F8"/>
  <path d="M217.439 1.17551V31.8336H250.158V24.7048H226.917V19.6775H249.21V12.6723H226.917V8.13951H249.746V1.17551H217.439Z" fill="#F8F8F8"/>
  <path d="M254.139 1.17551V31.8336H285.045V24.2103H263.741V1.17551H254.139Z" fill="#F8F8F8"/>
  <path d="M288.586 1.17551V31.8336H319.491V24.2103H298.187V1.17551H288.586Z" fill="#F8F8F8"/>
  <path d="M342.034 32.3693C357.445 32.3693 360 27.1772 360 22.1087V21.5318C360 15.4332 355.344 12.6311 343.806 12.4251L338.655 12.3426C332.391 12.219 331.567 11.024 331.567 9.70539C331.567 8.38676 332.103 7.06813 339.52 7.06813H340.18C348.215 7.06813 348.833 9.58177 349.039 10.7356H359.011V10.3235C359.011 5.70829 355.715 0.639816 341.21 0.639816H338.366C324.397 0.639816 321.678 5.41984 321.678 9.99384V10.3647C321.678 15.1447 325.18 19.0182 336.636 19.3479L341.91 19.4715C348.998 19.6775 349.946 20.7901 349.946 22.562C349.946 24.2103 349.039 25.8174 340.963 25.8174H340.386C332.474 25.8174 331.402 22.8093 331.279 20.9549H321.266V21.4082C321.266 25.4465 323.12 32.3693 339.191 32.3693H342.034Z" fill="#F8F8F8"/>
</svg>
