<?xml version="1.0" encoding="UTF-8" standalone="no"?>
<!DOCTYPE svg PUBLIC "-//W3C//DTD SVG 1.1//EN" "http://www.w3.org/Graphics/SVG/1.1/DTD/svg11.dtd">
<!-- Created with Vectornator (http://vectornator.io/) -->
<svg height="100%" stroke-miterlimit="10" style="fill-rule:nonzero;clip-rule:evenodd;stroke-linecap:round;stroke-linejoin:round;" version="1.1" viewBox="0 0 24 24" width="100%" xml:space="preserve" xmlns="http://www.w3.org/2000/svg" xmlns:xlink="http://www.w3.org/1999/xlink">
<defs/>
<g id="Untitled">
<path d="M5.37214 24L0.396429 24L0.396429 7.97674L5.37214 7.97674L5.37214 24ZM2.88161 5.79102C1.29054 5.79102 0 4.47317 0 2.8821C2.37147e-08 1.29063 1.29014 0.000488281 2.88161 0.000488281C4.47307 0.000488281 5.76321 1.29063 5.76321 2.8821C5.76321 4.47317 4.47214 5.79102 2.88161 5.79102ZM23.9946 24L19.0296 24L19.0296 16.2C19.0296 14.341 18.9921 11.9571 16.4427 11.9571C13.8557 11.9571 13.4593 13.9767 13.4593 16.066L13.4593 24L8.48893 24L8.48893 7.97674L13.2611 7.97674L13.2611 10.1625L13.3307 10.1625C13.995 8.90352 15.6177 7.57495 18.0386 7.57495C23.0743 7.57495 24 10.891 24 15.1982L24 24L23.9946 24Z" fill-rule="evenodd" opacity="1" stroke="none"/>
</g>
</svg>
