<?xml version="1.0" encoding="utf-8"?>
<!-- Generator: Adobe Illustrator 27.0.0, SVG Export Plug-In . SVG Version: 6.00 Build 0)  -->
<svg version="1.1" id="Layer_1" xmlns="http://www.w3.org/2000/svg" xmlns:xlink="http://www.w3.org/1999/xlink" x="0px" y="0px"
	 viewBox="0 0 24 24" style="enable-background:new 0 0 24 24;" xml:space="preserve">
<style type="text/css">
	.st0{display:none;}
</style>
<path class="st0" d="M9,8H6v4h3v12h5V12h3.6L18,8h-4V6.3c0-1,0.2-1.3,1.1-1.3H18V0h-3.8C10.6,0,9,1.6,9,4.6V8z"/>
<g id="layer1" transform="translate(52.390088,-25.058597)">
	<path id="path1009" d="M-52.2,25.9l9.2,12.3l-9.3,10h2.1l8.1-8.8l6.5,8.8h7.1l-9.7-13l8.6-9.3h-2.1l-7.5,8.1l-6-8.1H-52.2z
		 M-49.2,27.4h3.3l14.4,19.2h-3.3L-49.2,27.4z"/>
</g>
</svg>
