<?xml version="1.0" encoding="utf-8"?>
<!-- Generator: Adobe Illustrator 27.0.0, SVG Export Plug-In . SVG Version: 6.00 Build 0)  -->
<svg version="1.1" id="Layer_1" xmlns="http://www.w3.org/2000/svg" xmlns:xlink="http://www.w3.org/1999/xlink" x="0px" y="0px"
	 viewBox="0 0 120 77" style="enable-background:new 0 0 120 77;" xml:space="preserve">
<style type="text/css">
	.st0{fill-rule:evenodd;clip-rule:evenodd;fill:#3DC4B1;}
	.st1{fill:#F8F8F8;}
</style>
<path class="st0" d="M0,2.8C0,1.3,1.3,0,2.9,0c4.5,0,9.1,2.1,11.9,6.2l11,16.1l11-16.1C39.5,2.1,44,0,48.6,0c4.5,0,9.1,2.1,11.9,6.2
	l11,16.1l11-16.1c5.7-8.3,18.1-8.3,23.8,0l7.6,11.2c0.9,1.3,0.5,3-0.8,3.9c-1.3,0.9-3.1,0.5-4-0.8l-7.6-11.2c-3.4-5-10.9-5-14.3,0
	L74.8,27.4l12.3,18.1c3.4,5,10.9,5,14.3,0l10.4-15.3H94.3c-1.6,0-2.9-1.3-2.9-2.8c0-1.5,1.3-2.8,2.9-2.8h22.8c1.1,0,2,0.6,2.5,1.5
	c0.5,0.9,0.4,2-0.1,2.9l-13.3,19.6c-5.7,8.3-18.1,8.3-23.8,0l-11-16.1l-11,16.1c-2.8,4.2-7.4,6.2-11.9,6.2c-4.5,0-9.1-2.1-11.9-6.2
	l-11-16.1l-11,16.1c-2.8,4.2-7.4,6.2-11.9,6.2C1.3,54.8,0,53.5,0,52c0-1.5,1.3-2.8,2.9-2.8c2.7,0,5.4-1.2,7.1-3.7l12.3-18.1L10,9.3
	C8.3,6.8,5.6,5.6,2.9,5.6C1.3,5.6,0,4.3,0,2.8z M48.6,49.2c2.7,0,5.4-1.2,7.1-3.7L68,27.4L55.7,9.3c-1.7-2.5-4.4-3.7-7.1-3.7
	c-2.7,0-5.4,1.2-7.1,3.7L29.1,27.4l12.3,18.1C43.1,47.9,45.8,49.2,48.6,49.2z"/>
<path class="st1" d="M7.1,72.8c3.2,0,4.5-1.3,4.9-1.8c0.2,0.4,0.4,1.2,0.4,1.6h1.9v-5.7H7.2v1.9h4v0c0,0.3-0.9,1.5-4,1.5
	c-2.8,0-3.9-1.4-3.9-2.8v-0.2c0-1.4,0.8-2.8,3.9-2.8c3.2,0,3.6,1.2,3.6,1.5h3.4v0c-0.1-1.4-1.1-3.9-6.8-3.9H6.9
	C1,62.2,0,65.3,0,67.3v0.4c0,2.1,1.3,5.1,6.8,5.1H7.1z"/>
<path class="st1" d="M15.8,62.4v10.2h10.9v-2.4H19v-1.7h7.4v-2.3H19v-1.5h7.6v-2.3H15.8z"/>
<path class="st1" d="M34.9,62.2c-6.5,0-7.2,3.2-7.2,5.1v0.4c0,1.8,0.7,5.1,7.2,5.1h0.6c6.5,0,7.2-3.3,7.2-5.1v-0.4
	c0-1.8-0.8-5.1-7.2-5.1H34.9z M39.3,67.6c0,1.2-0.7,2.8-4.1,2.8c-3.5,0-4.1-1.6-4.1-2.8v-0.2c0-1.2,0.6-2.7,4.1-2.7
	c3.5,0,4.1,1.5,4.1,2.7V67.6z"/>
<path class="st1" d="M50.2,72.8c5.1,0,6-1.7,6-3.4v-0.2c0-2-1.6-3-5.4-3l-1.7,0c-2.1,0-2.4-0.4-2.4-0.9c0-0.4,0.2-0.9,2.7-0.9h0.2
	c2.7,0,2.9,0.8,3,1.2h3.3v-0.1c0-1.5-1.1-3.2-5.9-3.2H49c-4.7,0-5.6,1.6-5.6,3.1v0.1c0,1.6,1.2,2.9,5,3l1.8,0c2.4,0.1,2.7,0.4,2.7,1
	c0,0.6-0.3,1.1-3,1.1h-0.2c-2.6,0-3-1-3-1.6h-3.3v0.2c0,1.3,0.6,3.7,6,3.7H50.2z"/>
<path class="st1" d="M64.3,72.8c5.9,0,6.9-2.9,6.9-4.2v-0.2h-3.4c-0.1,0.2-0.4,1.8-3.7,1.8c-3,0-3.8-1.6-3.8-2.8v-0.2
	c0-1.3,0.7-2.7,3.8-2.7c3.2,0,3.7,1.4,3.7,1.7h3.4v-0.2c0-1.2-0.9-4-6.9-4h-0.6c-6.1,0-6.9,3.2-6.9,5.1v0.4c0,1.8,0.9,5.1,6.9,5.1
	H64.3z"/>
<path class="st1" d="M72.3,62.4v10.2h10.9v-2.4h-7.8v-1.7h7.4v-2.3h-7.4v-1.5h7.6v-2.3H72.3z"/>
<path class="st1" d="M84.6,62.4v10.2h10.3v-2.5h-7.1v-7.7H84.6z"/>
<path class="st1" d="M96.1,62.4v10.2h10.3v-2.5h-7.1v-7.7H96.1z"/>
<path class="st1" d="M114,72.8c5.1,0,6-1.7,6-3.4v-0.2c0-2-1.6-3-5.4-3l-1.7,0c-2.1,0-2.4-0.4-2.4-0.9c0-0.4,0.2-0.9,2.7-0.9h0.2
	c2.7,0,2.9,0.8,3,1.2h3.3v-0.1c0-1.5-1.1-3.2-5.9-3.2h-1c-4.7,0-5.6,1.6-5.6,3.1v0.1c0,1.6,1.2,2.9,5,3l1.8,0c2.4,0.1,2.7,0.4,2.7,1
	c0,0.6-0.3,1.1-3,1.1h-0.2c-2.6,0-3-1-3-1.6H107v0.2c0,1.3,0.6,3.7,6,3.7H114z"/>
</svg>
