<?xml version="1.0" encoding="utf-8"?>
<!-- Generator: Adobe Illustrator 27.0.0, SVG Export Plug-In . SVG Version: 6.00 Build 0)  -->
<svg version="1.1" id="a" xmlns="http://www.w3.org/2000/svg" xmlns:xlink="http://www.w3.org/1999/xlink" x="0px" y="0px"
	 viewBox="0 0 128 128" style="enable-background:new 0 0 128 128;" xml:space="preserve">
<style type="text/css">
	.st0{display:none;}
	.st1{display:none;fill:#0C0A09;}
	.st2{fill:#FF4673;}
</style>
<path id="Backplate" class="st0" d="M111.4,0H16.8C7.6,0,0,7.6,0,16.8V111c0,9.4,7.6,17,16.8,17h94.3c9.4,0,16.8-7.6,16.8-16.8V16.8
	C128.2,7.6,120.6,0,111.4,0z"/>
<path class="st1" d="M107.7,5H20.5C12,5,5,12,5,20.5v86.9C5,116,12,123,20.5,123h87c8.7,0,15.5-7,15.5-15.5v-87
	C123.2,12,116.2,5,107.7,5z"/>
<g id="Untitled">
	<path class="st2" d="M63.5,0.5c-10.3,0-20.6,4.8-27,14.5L11.6,52.2l0-0.1c-1.6,2.6-5.5,8.6-5.6,11c0,0.1,0,0.1,0,0.2c0,0,0,0,0,0
		c0,0,0,0.1,0,0.1c0.1,2.2,2.3,6.1,3.8,8.5c1,1.9,26.6,41,26.6,41c12.8,19.3,41.2,19.3,54,0l30.3-45.5c1.3-2,1.5-4.5,0.3-6.7
		s-3.3-3.4-5.7-3.4H63.5c-3.6,0-6.5,2.9-6.5,6.5c0,3.6,2.9,6.5,6.5,6.5h39.8l-23.6,35.4c-7.7,11.6-24.7,11.6-32.4,0L19.4,64
		l27.9-41.9c7.7-11.6,24.7-11.6,32.4,0l17.3,26c2,3,6,3.8,9,1.8c3-2,3.8-6,1.8-9l-17.3-26C84.1,5.3,73.8,0.5,63.5,0.5z"/>
</g>
</svg>
