<?xml version="1.0" encoding="utf-8"?>
<!-- Generator: Adobe Illustrator 27.0.0, SVG Export Plug-In . SVG Version: 6.00 Build 0)  -->
<svg version="1.1" id="Layer_1" xmlns="http://www.w3.org/2000/svg" x="0px" y="0px"
	 viewBox="0 0 485 485" style="enable-background:new 0 0 485 485;" xml:space="preserve">
<style type="text/css">
	.st0{display:none;fill:#C2C2C2;}
	.st1{display:none;}
	.st2{display:inline;fill:#C2C2C2;}
	.st3{fill:#C2C2C2;}
	.st4{fill:none;stroke:#C2C2C2;stroke-width:31;stroke-linecap:round;stroke-miterlimit:10;}
</style>
<path class="st0" d="M414,71C368.2,25.2,307.3,0,242.5,0S116.8,25.2,71,71C25.2,116.8,0,177.7,0,242.5S25.2,368.2,71,414
	c45.8,45.8,106.7,71,171.5,71c32.7,0,64.5-6.4,94.4-19.1l-11.7-27.6c-26.2,11.1-54,16.7-82.7,16.7C125.3,455,30,359.7,30,242.5
	S125.3,30,242.5,30S455,125.3,455,242.5c0,51.3-31.5,74.7-60.8,74.7c-29.3,0-60.8-23.4-60.8-74.7c0-50.1-40.7-90.8-90.8-90.8
	s-90.8,40.7-90.8,90.8s40.7,90.8,90.8,90.8c29.7,0,56-14.3,72.6-36.3c4.2,8.6,9.6,16.3,16,23.1c16.6,17.5,39,27.1,63,27.1
	c24,0,46.4-9.6,63-27.1c18.2-19.1,27.8-46,27.8-77.6C485,177.7,459.8,116.8,414,71z M242.5,303.3c-33.5,0-60.8-27.3-60.8-60.8
	s27.3-60.8,60.8-60.8s60.8,27.3,60.8,60.8S276,303.3,242.5,303.3z"/>
<g class="st1">
	<path class="st2" d="M141.4,0h208C368.5,0,384,16.3,384,36.5v413.4c0,20.1-15.5,36.5-34.6,36.5h-208c-19.1,0-34.6-16.3-34.6-36.5
		V36.5C106.8,16.3,122.3,0,141.4,0z M141.4,24.3c-6.4,0-11.5,5.4-11.5,12.2v413.4c0,6.7,5.2,12.2,11.5,12.2h208
		c6.4,0,11.5-5.4,11.5-12.2V36.5c0-6.7-5.2-12.2-11.5-12.2H141.4z M227.3,437.7c-6.4,0-11.5-5.4-11.5-12.2c0-6.7,5.2-12.2,11.5-12.2
		h35.9c6.4,0,11.5,5.4,11.5,12.2c0,6.7-5.2,12.2-11.5,12.2H227.3z"/>
	<path class="st2" d="M210.6,63.1c-6.4,0-11.5-5.4-11.5-12.2s5.2-12.2,11.5-12.2h69.2c6.4,0,11.5,5.4,11.5,12.2s-5.2,12.2-11.5,12.2
		H210.6z"/>
</g>
<g>
	<path class="st3" d="M317.1,31c13.3,0,24,10.8,24,24V430c0,13.3-10.8,24-24,24H176.6c-13.3,0-24-10.8-24-24V55
		c0-13.3,10.8-24,24-24H317.1 M317.1,0H176.6c-30.4,0-55,24.6-55,55V430c0,30.4,24.6,55,55,55h140.5c30.4,0,55-24.6,55-55V55
		C372.2,24.6,347.5,0,317.1,0L317.1,0z"/>
</g>
<g>
	<line class="st4" x1="202.4" y1="63" x2="291.4" y2="63"/>
</g>
<g>
	<line class="st4" x1="233.4" y1="421" x2="260.1" y2="421"/>
</g>
</svg>
